<svg xmlns="http://www.w3.org/2000/svg" viewBox="0 0 64 64" role="img" aria-label="石 favicon">
  <rect width="64" height="64" rx="15" fill="#0b443a"/>
  <rect x="10" y="10" width="44" height="44" rx="11" fill="#fbfaf6"/>
  <rect x="13.5" y="13.5" width="37" height="37" rx="8" fill="none" stroke="#116656" stroke-width="2.5"/>

  <g fill="none" stroke="#ad7b1b" stroke-width="2.6" stroke-linecap="round">
    <path d="M21 8v6"/>
    <path d="M32 7v7"/>
    <path d="M43 8v6"/>
    <path d="M21 50v6"/>
    <path d="M32 50v7"/>
    <path d="M43 50v6"/>
    <path d="M8 21h6"/>
    <path d="M7 32h7"/>
    <path d="M8 43h6"/>
    <path d="M50 21h6"/>
    <path d="M50 32h7"/>
    <path d="M50 43h6"/>
  </g>

  <text
    x="32"
    y="44"
    text-anchor="middle"
    font-family="'Songti SC', STSong, 'Noto Serif CJK SC', 'Source Han Serif SC', serif"
    font-size="42"
    font-weight="700"
    fill="#0b443a">石</text>

  <g fill="#ad7b1b">
    <circle cx="18" cy="18" r="2.2"/>
    <circle cx="46" cy="18" r="2.2"/>
    <circle cx="18" cy="46" r="2.2"/>
    <circle cx="46" cy="46" r="2.2"/>
  </g>
</svg>
